<svg width="1440" height="154" viewBox="0 0 1440 154" fill="none" xmlns="http://www.w3.org/2000/svg">
<path d="M-7.74371 118.171C-1.64372 111.347 6.61827 102.56 13.0834 96.0898C15.089 94.0799 14.0083 95.036 15.4126 93.6351C18.1593 90.905 20.8001 88.4376 23.5612 85.8172C24.4848 84.942 23.2374 85.928 24.2101 85.0118C29.5115 80.0313 34.7034 75.4975 40.3668 70.7745C59.212 55.2436 79.4655 40.9777 102.757 33.6416C113.946 30.2457 125.757 28.8452 137.656 28.7045C149.748 28.508 164.492 29.8914 176.798 32.1439C178.235 32.4035 177.358 32.3612 177.63 32.4185C181.891 33.3373 180.507 32.8593 183.31 33.3753C194.426 35.4498 206.622 38.6113 217.028 41.8204C221.457 43.1952 216.95 42.0336 221.45 43.3053C221.762 43.3947 220.675 42.9295 221.891 43.2995C224.631 44.1255 229.851 45.8733 231.947 46.5872C235.993 47.9579 236.731 48.2216 240.52 49.5854C245.789 51.4885 251.983 53.7915 257.509 56.0464C258.7 56.533 257.08 56.0083 258.966 56.7935C260.817 57.5585 265.848 59.6395 267.491 60.3148C269.143 60.9875 268.479 60.6025 268.777 60.7062C271.37 61.6055 276.879 64.3163 277.65 64.6769C287.972 69.4112 297.493 73.9092 306.571 78.7207L306.592 78.7315C309.161 79.9995 311.663 81.21 314.332 82.4986C323.735 87.0356 333.829 91.7716 342.881 95.8263C353.699 100.666 362.907 104.57 373.529 108.946C374.653 109.408 373.281 108.999 374.656 109.563C389.22 115.516 403.843 121.057 418.83 125.71C420.337 126.175 418.437 125.447 419.943 125.902C423.508 126.976 428.018 128.254 432.396 129.389C439.316 131.189 446.005 132.995 449.31 134.199C455.563 135.817 463.288 137.776 468.932 139.058C472.605 139.892 469.097 138.892 473.551 140.04C474.552 140.296 473.219 140.095 474.721 140.469C481.112 142.06 488.105 143.629 494.435 145.034C495.733 145.322 495.356 145.35 495.72 145.446C498.775 146.253 503.964 147.015 505.089 147.205C513.661 148.689 519.92 149.773 527.952 150.851C529.819 151.095 527.594 150.949 529.389 151.186C538.698 152.409 548.409 153.229 557.602 153.494C559.644 153.551 557.771 153.365 558.747 153.384C563.056 153.454 564.003 153.696 568.142 153.657C569.015 153.645 568.523 153.542 568.682 153.53C571.169 153.345 573.324 153.554 573.968 153.546C582.058 153.42 587.221 152.835 595.005 152.148C595.938 152.062 593.859 152.399 596.462 152.147C612.493 150.573 629.087 147.442 644.707 143.445C646.128 143.083 647.523 142.712 648.891 142.333C651.462 141.614 649.598 142.021 649.757 141.965C652.374 141.048 654.168 140.771 655 140.531C661.67 138.595 667.685 136.155 672.152 134.682C699.602 123.781 723.246 106.116 747.482 90.1878C747.79 89.9869 747.168 90.2362 747.781 89.8361C755.235 85.0228 753.924 86.0991 759.044 83.2727C760.357 82.5467 764.065 80.0489 764.418 79.8293C765.647 79.0349 764.238 79.6266 764.656 79.37C768.071 77.2961 767.841 78.1126 772.569 75.5491C772.718 75.4679 772.037 75.7047 772.432 75.4794C773.658 74.78 774.94 74.1541 776.13 73.4913C778.898 71.9627 779.757 71.1705 784.201 69.2127C784.771 68.9715 784.065 69.6665 788.43 67.6144C788.838 67.4242 789.574 67.0845 790.5 66.6646C793.554 65.2844 798.495 63.0184 800.154 62.2318C802.33 61.2022 800.782 61.7923 800.936 61.7158C806.698 58.8838 804.496 59.8333 807.309 58.28C810.146 56.7124 809.561 57.5653 810.775 57.062C811.976 56.5656 816.213 54.4404 817.253 53.9042C818.289 53.3701 816.944 53.9225 817.87 53.4606C823.989 50.4099 820.703 52.4177 822.776 51.5362C827.674 49.4552 831.255 47.3488 835.657 45.2779C836.854 44.716 835.912 45.2469 836.983 44.764C841.213 42.8612 843.711 41.5918 848.589 39.5652C849.386 39.2323 853.393 37.7429 855.873 36.515C856.225 36.3404 855.161 36.6814 856.977 35.895C859.685 34.7179 864.623 32.6946 867.594 31.5856C869.795 30.7625 867.346 31.874 870.078 30.7757C871.296 30.2901 868.989 31.0632 871.283 30.1596C873.562 29.2511 879.468 27.1328 881.728 26.3775C883.983 25.6125 882.789 26.1483 882.973 26.0938C884.104 25.7514 888.446 24.392 888.84 24.2728C899.466 20.8834 909.709 18.0699 920.085 15.5986C928.686 13.5534 937.189 11.5906 946.021 9.77942C947.543 9.46832 946.556 9.80432 946.788 9.75815C952.015 8.74063 947.84 9.24458 951.461 8.39848C950.979 8.76176 953.141 8.27095 956.818 7.60193C958.608 7.27843 957.652 7.56136 957.818 7.54053C960.483 7.19638 962.284 6.67943 962.753 6.55507C964.473 6.09978 966.413 5.94928 967.589 5.65533C968.764 5.3636 965.998 5.66431 969.549 5.09116C970.564 5.0238 967.955 5.68463 970.668 5.29422C980.854 3.69145 999.996 1.67738 1008.29 1.51903C1016.57 1.23662 1019.23 1.31303 1024.05 1.33073C1032.76 1.46265 1029.56 1.5769 1034.97 1.88054C1040.36 2.23741 1037.77 1.66615 1038.55 1.61029C1039.32 1.55873 1040.16 1.7074 1041.1 1.71461C1042.05 1.72298 1040.01 1.52588 1042.23 1.65074C1044.49 1.76732 1050.57 2.42723 1051.33 2.60347C1052.97 2.96593 1050.22 2.92317 1056.1 3.40373C1056.44 3.43219 1055.36 3.20862 1056.65 3.32379C1057.59 3.40875 1058.55 3.49811 1059.51 3.59177C1068.87 4.50285 1078.5 6.27641 1087.65 8.27153C1089.03 8.57449 1087.82 8.16681 1088.63 8.34271C1097.04 10.2385 1093.98 9.75214 1098.5 11.142C1097.55 10.5732 1100.14 10.9885 1106.44 12.7293C1110.23 13.7871 1109.54 13.7445 1111.95 14.5444C1112.68 14.7842 1115.37 15.4767 1115.83 15.6874C1117.36 16.3781 1114.8 15.8361 1121.26 17.7193C1121.54 17.8028 1120.67 17.4092 1121.65 17.7063C1127.97 19.6402 1128.64 20.0936 1135.41 22.3829C1140.71 24.1747 1150.13 27.3538 1156.11 29.557C1156.1 29.1607 1161.69 31.3358 1163.92 32.4602C1167.73 33.9045 1171.96 35.5736 1175.66 37.015C1176.95 37.5192 1176.14 37.0829 1176.31 37.1374C1178.76 37.9285 1180.46 38.8845 1181.21 39.2021C1186.1 41.2585 1190.56 43.0908 1194.84 44.9568L1194.91 44.9888L1194.99 44.9698C1198.75 44.0476 1202.51 43.2276 1206.65 42.439C1206.98 42.3793 1207.44 42.5342 1209.93 41.8387C1210.06 41.8008 1207.05 42.2921 1211.29 41.4236C1215.58 40.5437 1223.6 38.9009 1229.56 38.0229C1230.97 37.8125 1234.7 37.4032 1237.56 36.7997C1237.94 36.7183 1237.51 36.7122 1238.06 36.5859C1239.84 36.1818 1240.94 36.2731 1243.02 35.7493C1245.1 35.2271 1249.53 34.4189 1255.63 33.8133C1255.82 33.7943 1257.25 33.8197 1259.15 33.5931C1262.23 33.2237 1266.46 32.7235 1269.68 32.4137C1271.19 32.2686 1270.23 32.4871 1270.5 32.4641C1280.72 31.5801 1287.99 30.9438 1298.98 30.5066C1300.99 30.4234 1306.78 30.46 1310.68 30.3313C1314.96 30.2112 1310.56 29.4886 1320.42 29.8421C1324.4 30.0211 1329.38 30.9846 1336.52 31.1869C1350.29 32.5228 1363.05 34.3735 1376.25 38.8445C1376.84 39.0436 1378.6 39.8714 1379.95 40.3765C1379.97 40.382 1379.98 40.3876 1380 40.393C1382.06 41.1522 1383.21 41.4629 1384.67 41.9869C1390.8 44.2018 1396.4 46.245 1402.19 48.6521C1404.39 49.5828 1403.67 49.144 1406.27 50.3127C1408.85 51.5087 1410.49 52.4626 1413.89 54.2568C1416.45 55.6239 1419.12 56.8825 1422.38 58.9421C1422.34 59.2583 1424.6 60.68 1428.42 63.4202C1429.16 63.9505 1428.31 63.4741 1428.65 63.7295C1430.06 64.7725 1431.44 65.6524 1432.73 66.6444C1433.05 66.8902 1433.01 66.9793 1433.27 67.187C1434.89 68.4813 1437.37 70.198 1438.87 71.2315C1439.39 71.5895 1439.77 71.8651 1439.94 71.9868C1442.37 73.7919 1443.28 74.9227 1444.86 76.6161C1446.41 78.3492 1444.22 75.6436 1445.99 77.7112C1449.67 82.0238 1452.94 88.6189 1454.7 94.0703C1455.41 96.2449 1454.81 94.7997 1454.91 95.1118C1456.32 99.6166 1457.36 104.298 1457.53 106.922C1458.65 110.05 1458 109.738 1458.7 116.435C1458.74 116.959 1459.11 117.619 1459 115.576C1458.89 113.525 1458.47 110.456 1458.1 107.636C1458.03 106.969 1457.63 103.12 1457.51 102.596C1456.77 98.5224 1456.08 98.0914 1456.02 97.8863C1455.14 95.5661 1453.86 91.0364 1453.37 89.8851C1451.28 84.5882 1448.68 80.4213 1445.66 76.7261C1443.64 74.3449 1443.61 73.9333 1441.76 72.271C1440.96 71.5804 1440.19 70.9813 1439.45 70.4488C1434.53 66.9262 1432 65.4059 1426.68 61.3743C1425.38 60.4157 1426.92 60.9823 1421.87 58.0185C1421.54 57.8169 1417.73 55.7121 1415.61 54.3457C1415.34 54.1729 1415.4 54.0941 1415.04 53.8828C1412.62 52.4652 1410.93 51.6588 1408.2 50.2966C1405.46 48.9382 1402.1 47.4402 1398.85 46.2086C1396.9 45.461 1394.31 44.6911 1393.37 44.3913C1390.67 43.5328 1387.91 42.3115 1386.21 41.8564C1384.51 41.4019 1387.66 42.8015 1383.29 41.313C1383.21 41.0174 1382.93 40.6382 1382.76 40.3036C1381.94 40.0065 1381.14 39.7136 1380.31 39.4068C1371.57 36.1996 1362.59 34.1203 1353.4 32.5797C1352.15 32.3725 1353.45 32.4461 1352.12 32.2268C1346.48 31.3186 1341.49 30.8321 1335.59 30.2987C1331.01 29.888 1326 29.467 1321.2 29.2849C1318.26 29.4676 1311.15 29.2684 1305.98 29.3865C1304.17 29.4235 1304.29 29.5 1303.01 29.5522C1298.16 29.7672 1300.43 29.4588 1299.09 29.4567C1293.37 29.4921 1292.91 30.0814 1286.19 30.4662C1285.85 30.4821 1281.46 30.4732 1280.87 30.5041C1277.06 30.67 1280.24 30.6565 1277.87 30.8665C1273.51 31.266 1270.55 31.6085 1265.42 32.054C1263.95 32.1803 1260.35 32.3833 1257.5 32.8783C1257.13 32.9429 1257.35 33.0188 1257.05 33.0613C1251.57 33.8365 1251.35 33.5583 1248.23 33.8678C1245 34.1949 1240.27 35.1215 1239.25 35.344C1236.7 35.901 1241.25 35.1113 1241.41 35.1074C1243.11 35.0492 1239.48 35.5498 1236.84 35.9822C1236.54 36.3426 1232.69 36.9411 1234.04 36.4428C1234.19 36.3867 1236.33 36.0752 1236.84 35.9822C1234.42 36.0488 1230.3 36.6712 1225.75 37.7606C1223.71 38.2618 1225.61 38.0612 1219.23 39.1773C1216.22 39.7159 1217.31 39.2896 1214.76 39.7202C1208.84 40.7293 1201.23 42.5233 1195.15 43.9576C1195.12 43.9629 1195.08 43.9723 1195.01 43.9899C1194.95 44.0048 1194.9 44.0163 1194.86 44.0251C1194.79 44.0427 1194.76 44.0494 1194.76 44.0487L1195.22 44.0892C1194.59 43.7995 1194.63 43.7833 1194.72 43.7896C1194.8 43.792 1194.91 43.805 1194.22 43.4986C1190.46 41.83 1187.15 40.5389 1183.35 38.9257C1183.01 38.779 1183.91 39.0152 1182.71 38.5211C1173.76 34.8443 1165.84 31.8346 1156.39 28.3325C1151.8 26.6249 1143.58 23.6213 1138.8 22.0157C1130.48 19.1821 1120.16 16.1002 1112.97 13.9684C1108.28 12.5799 1109.34 12.767 1107.35 12.1165C1103.51 10.8546 1096.49 9.34894 1095.54 9.17189C1095.51 9.16129 1099.59 10.2298 1097.4 9.73566C1096.1 9.54184 1095.59 9.18428 1095.54 9.17189C1094.93 9.02554 1086.75 7.11969 1085.1 6.76669C1084.22 6.56161 1084.74 6.5547 1084.28 6.45064C1076.18 4.63893 1067.98 3.15594 1059.65 2.28786C1056.65 1.97786 1053.71 1.70384 1050.72 1.46127C1050.53 1.44659 1050.81 1.60269 1050.35 1.56673C1043.77 1.07243 1039.55 0.64859 1034.12 0.300552C1028.69 -0.0381165 1024.35 -0.0805511 1021.14 0.122971C1017.04 0.0558472 1011.13 0.259323 1007.74 0.458221C1004.37 0.65126 1003.87 0.43721 1003.58 0.444077C994.274 0.803406 988.904 1.44868 979.334 2.69341C974.782 3.27647 965.776 4.66212 960.886 5.54015C957.031 6.21631 954.713 6.72357 951.158 7.39127C950.679 7.48169 951.139 7.2739 950.993 7.29874C947.011 7.96233 948.963 7.85394 948.155 8.06816C945.245 8.85132 943.44 9.32101 938.365 10.3383C937.216 10.5678 933.714 10.9325 931.607 11.3848C928.832 11.9816 929.91 11.8834 927.029 12.5061C926.78 12.5603 926.818 12.4601 925.026 12.8768C923.299 13.2785 921.55 13.69 919.739 14.1192C913.01 15.712 906 17.5481 899.302 19.4645C898.143 19.7973 899.587 19.2341 897.916 19.7141C890.079 21.9667 881.562 24.7659 874.102 27.5729C872.27 28.2628 873.456 27.9322 873.068 28.106C870.679 29.1705 867.139 30.2609 866.566 30.4818C852.961 35.6816 842.894 40.5099 829.427 46.6455C828.689 46.98 822.951 49.3625 820.552 50.752C820.375 50.8521 818.027 52.2223 815.745 53.112C815.61 53.1643 817.088 52.3329 814.414 53.6027C811.717 54.8833 807.357 56.835 803.699 58.6839C802.552 59.2639 799.846 60.7853 796.285 62.2071C796.074 62.2924 792.097 63.7715 789.719 64.9351C789.274 65.1531 788.89 65.3597 788.602 65.5432C788.314 65.7357 788.734 65.8602 784.517 67.6758C783.702 68.0311 785.128 67.2667 782.991 68.2463C779.738 69.7401 775.576 71.9411 771.624 73.9091C770.939 74.2457 767.968 75.6137 765.772 77.0455C765.43 77.2684 766.154 76.979 764.967 77.6661C759.284 80.9594 753.38 84.4753 747.809 88.1183C745.849 89.4031 746.945 88.902 744.904 90.273C742.87 91.6387 738.769 94.3902 736.58 95.7553C734.4 97.113 736.585 95.3291 733.372 97.4464C719.427 106.658 705.852 116.117 691.171 123.862C688.989 125.005 690.749 123.993 687.531 125.632C676.286 131.607 656.045 138.921 644.286 141.759C643.676 141.92 643.092 142.074 642.536 142.22C633.51 144.55 644.931 141.964 638.038 143.662C634.694 144.476 630.974 144.945 630.181 145.099C622.199 146.657 616.715 147.764 609.485 148.792C608.005 148.998 609.446 148.661 608.173 148.836C603.817 149.433 599.26 150.033 595.123 150.423C593.244 150.597 593.581 150.467 591.862 150.626C587.777 150.992 584.119 151.27 580.102 151.541C579.735 151.565 582.217 151.579 579.16 151.715C574.237 151.928 568.073 152.106 562.398 151.894C560.708 151.827 560.645 151.616 557.022 151.639C556.261 151.637 557.216 151.966 553.005 151.524C552.296 151.466 545.235 150.704 541.752 150.565C540.833 150.537 538.473 150.533 536.459 150.28C536.186 150.245 537.295 150.245 535.624 150.051C529.733 149.363 523.574 148.526 517.564 147.513C515.96 147.24 518.372 147.51 515.98 147.104C509.406 145.99 501.225 144.44 494.818 143.11C492.475 142.625 494.071 143.071 493.899 143.046C491.118 142.636 489.532 142.029 488.617 141.811C482.984 140.463 478.629 139.552 473.427 138.257C471.995 137.899 473.04 138.033 472.757 137.953C469.814 137.126 471.976 137.874 470.086 137.433C464.812 136.198 458.968 134.697 453.646 133.298C451.71 132.789 453.924 133.224 452.183 132.767C445.771 131.082 439.338 129.373 432.856 127.665C428.897 126.623 424.903 125.473 421.085 124.317C419.21 123.746 420.356 124.214 419.958 124.115C417.189 123.425 413.37 121.92 412.463 121.588C408.416 120.117 406.791 119.644 403.198 118.343C385.647 111.997 364.348 103.195 348.201 96.0468C333.118 89.3731 320.503 83.5416 307.407 77.1017L307.446 77.1218C302.507 74.4739 297.136 71.7945 291.602 69.1238C290.3 68.4975 291.643 68.9865 290.59 68.479C276.587 61.7636 262.477 55.7763 247.898 50.2098C246.711 49.7586 248.474 50.281 246.565 49.5529C242.598 48.0399 237.617 46.254 233.544 44.9025C231.586 44.2531 234.168 45.2566 232.195 44.6018C227.568 43.0702 222.617 41.4793 217.814 40.0014C215.788 39.3801 218.89 40.1732 216.25 39.378C198.183 33.9878 180.055 29.76 161.042 27.8141C159.745 27.6864 158.575 27.8309 155.802 27.5348C155.6 27.4408 155.619 27.3525 155.534 27.2635C137.703 25.7458 119.407 26.3502 102.129 31.5642C92.9867 34.3509 84.2695 38.3999 75.9142 43.0761C74.8951 43.6503 76.5854 42.528 74.6121 43.6457C63.2952 50.1232 52.9125 57.4698 42.6272 65.8956C41.6078 66.7385 42.2824 66.5034 39.256 68.9394C38.7243 69.3535 34.2039 73.1135 33.0447 74.0592C32.8824 74.1889 33.6169 73.3939 32.182 74.6325C23.8726 81.8202 15.555 89.7344 7.91609 97.5751C6.70081 98.8245 8.09265 97.5937 7.23125 98.4822C1.00531 104.902 -5.6753 111.947 -11.1936 118.395C-14.8939 122.741 -13.3883 121.361 -15.1471 123.739C-15.2891 123.929 -15.9534 124.723 -16.4994 125.403C-17.1924 126.258 -17.6391 126.847 -17.6886 127.005C-17.7345 127.556 -16.4223 126.524 -16.5886 127.251C-16.5714 127.286 -17.3948 128.272 -17.926 128.94C-18.0729 129.124 -18.1425 129.216 -18.229 129.33C-18.3888 129.536 -18.3733 129.528 -18.3695 129.538C-18.3544 129.534 -18.3833 129.589 -18.2852 129.491C-18.2582 129.463 -18.2196 129.422 -18.1598 129.355C-18.1268 129.321 -18.1067 129.303 -18.072 129.267C-18.0057 129.2 -17.9161 129.106 -17.784 128.962C-17.6737 128.836 -15.3595 126.15 -14.8353 125.632C-14.4276 125.216 -15.0166 126.107 -14.1938 125.22C-13.3277 124.284 -12.6003 123.27 -11.2588 121.822C-9.93032 120.398 -10.3504 121.084 -7.74371 118.171ZM992.534 1.69432C989.421 2.10431 988.916 1.70389 992.308 1.4949C992.472 1.48582 992.694 1.67395 992.534 1.69432ZM1363.41 34.8916C1359.33 34.175 1356.66 33.4098 1359.52 33.8056C1362.4 34.2306 1364.65 35.1174 1363.41 34.8916ZM1403.54 48.7972C1399.07 47.0862 1398.59 46.2185 1403.3 48.3108C1403.57 48.4351 1403.8 48.8999 1403.54 48.7972ZM-5.8049 113.237C-5.84316 113.286 -7.56463 115.199 -7.59636 115.228C-8.61828 116.147 -5.18709 112.331 -5.8049 113.237ZM1439.27 71.053C1439.22 71.0159 1439.16 70.9753 1439.09 70.9318C1437.7 69.9721 1434.67 67.6366 1436.17 68.6041C1436.92 69.0973 1438.36 70.1751 1439.17 70.8305C1439.72 71.2802 1439.92 71.4883 1439.27 71.053ZM835.686 45.0238C835.638 45.0525 834.002 45.8141 834.018 45.7656C834.078 45.6032 836.385 44.5779 835.686 45.0238ZM1458.79 137.249C1459.53 126.615 1458.77 120.263 1458.65 131.752C1458.58 133.826 1458.97 127.28 1458.93 129.916C1458.84 134.813 1458.31 137.915 1457.83 142.915C1457.78 143.783 1458.79 137.859 1458.8 137.23C1458.8 137.237 1458.8 137.243 1458.79 137.249ZM990.786 2.39706C990.723 2.40645 988.224 2.66159 988.164 2.66443C986.794 2.65865 991.832 2.14198 990.786 2.39706ZM741.772 93.7502C741.659 93.8338 736.805 97.0603 736.642 97.1594C733.975 98.6446 743.794 92.1165 741.772 93.7502ZM1156.21 29.5824C1158.73 30.6683 1161.74 31.8217 1163.9 32.4559C1161.31 31.4739 1158.78 30.5239 1156.21 29.5824Z" fill="white"/>
</svg>
